<?xml version="1.0" encoding="UTF-8" standalone="no"?>
<!-- Created with Inkscape (http://www.inkscape.org/) -->

<svg
   width="200mm"
   height="40mm"
   viewBox="0 0 200 40"
   version="1.1"
   id="svg5"
   inkscape:version="1.1 (c4e8f9e, 2021-05-24)"
   sodipodi:docname="yotiosoft.svg"
   xmlns:inkscape="http://www.inkscape.org/namespaces/inkscape"
   xmlns:sodipodi="http://sodipodi.sourceforge.net/DTD/sodipodi-0.dtd"
   xmlns="http://www.w3.org/2000/svg"
   xmlns:svg="http://www.w3.org/2000/svg">
  <sodipodi:namedview
     id="namedview7"
     pagecolor="#4b4b4b"
     bordercolor="#666666"
     borderopacity="1.0"
     inkscape:pageshadow="2"
     inkscape:pageopacity="0"
     inkscape:pagecheckerboard="0"
     inkscape:document-units="mm"
     showgrid="false"
     inkscape:zoom="1.1243229"
     inkscape:cx="252.15176"
     inkscape:cy="237.47626"
     inkscape:window-width="1680"
     inkscape:window-height="936"
     inkscape:window-x="0"
     inkscape:window-y="25"
     inkscape:window-maximized="0"
     inkscape:current-layer="text1442" />
  <defs
     id="defs2" />
  <g
     inkscape:label="レイヤー 1"
     inkscape:groupmode="layer"
     id="layer1">
    <rect
       style="fill:#fff200;fill-opacity:1;stroke-width:0.312513"
       id="rect846"
       width="27.479132"
       height="40.559002"
       x="1.1120392"
       y="0.64351088" />
    <rect
       style="fill:#23b14b;fill-opacity:1;stroke-width:0.317641"
       id="rect914"
       width="25.499613"
       height="31.727777"
       x="9.4415646"
       y="9.452899" />
    <rect
       style="fill:#ed2324;fill-opacity:1;stroke-width:0.296348"
       id="rect982"
       width="20.916073"
       height="23.446053"
       x="18.57011"
       y="17.756462" />
    <rect
       style="fill:#00a2e8;fill-opacity:1;stroke-width:0.289152"
       id="rect1050"
       width="16.083439"
       height="16.325666"
       x="28.591171"
       y="24.855011" />
    <g
       aria-label="YotioSoft"
       id="text1442"
       style="font-weight:bold;font-size:28.2222px;line-height:1.25;font-family:'Nunito Sans';-inkscape-font-specification:'Nunito Sans Bold';fill:#313131;stroke-width:0.264583">
      <path
         d="M 64.422194,30.809792 V 21.665799 L 56.773978,10.91314 h 4.205108 l 5.305774,7.535328 5.333995,-7.535328 h 4.035775 l -7.619994,10.780881 v 9.115771 z"
         id="path2848" />
      <path
         d="m 80.739036,31.092014 q -2.144887,0 -3.725331,-0.874889 -1.580443,-0.874888 -2.455331,-2.483553 -0.874888,-1.636888 -0.874888,-3.83822 0,-2.201331 0.874888,-3.809997 0.874888,-1.608665 2.455331,-2.483553 1.580444,-0.874888 3.725331,-0.874888 2.144887,0 3.72533,0.874888 1.580443,0.874888 2.455332,2.483553 0.874888,1.608666 0.874888,3.809997 0,2.201332 -0.874888,3.83822 -0.874889,1.608665 -2.455332,2.483553 -1.580443,0.874889 -3.72533,0.874889 z m 0,-2.681109 q 1.580443,0 2.539998,-1.128888 0.959555,-1.157111 0.959555,-3.386665 0,-2.257776 -0.959555,-3.358441 -0.959555,-1.128888 -2.539998,-1.128888 -1.580443,0 -2.539998,1.128888 -0.959555,1.100665 -0.959555,3.358441 0,2.229554 0.959555,3.386665 0.959555,1.128888 2.539998,1.128888 z"
         id="path2850" />
      <path
         d="m 96.862732,31.092014 q -5.475107,0 -5.475107,-5.418663 v -6.011329 h -2.652887 v -2.652886 h 2.652887 V 12.888694 H 94.9154 v 4.120442 h 4.176886 v 2.652886 H 94.9154 v 5.813774 q 0,1.354665 0.592667,2.031998 0.592666,0.677333 1.919109,0.677333 0.395111,0 0.818444,-0.08467 0.423333,-0.112888 0.874888,-0.225777 l 0.536222,2.596442 q -0.508,0.282222 -1.298221,0.451555 -0.762,0.169334 -1.495777,0.169334 z"
         id="path2852" />
      <path
         d="m 101.17411,14.045805 v -3.443109 h 3.95111 v 3.443109 z m 0.22578,16.763987 V 17.009136 h 3.52778 v 13.800656 z"
         id="path2854" />
      <path
         d="m 114.91436,31.092014 q -2.14489,0 -3.72534,-0.874889 -1.58044,-0.874888 -2.45533,-2.483553 -0.87488,-1.636888 -0.87488,-3.83822 0,-2.201331 0.87488,-3.809997 0.87489,-1.608665 2.45533,-2.483553 1.58045,-0.874888 3.72534,-0.874888 2.14488,0 3.72533,0.874888 1.58044,0.874888 2.45533,2.483553 0.87489,1.608666 0.87489,3.809997 0,2.201332 -0.87489,3.83822 -0.87489,1.608665 -2.45533,2.483553 -1.58045,0.874889 -3.72533,0.874889 z m 0,-2.681109 q 1.58044,0 2.53999,-1.128888 0.95956,-1.157111 0.95956,-3.386665 0,-2.257776 -0.95956,-3.358441 -0.95955,-1.128888 -2.53999,-1.128888 -1.58045,0 -2.54,1.128888 -0.95956,1.100665 -0.95956,3.358441 0,2.229554 0.95956,3.386665 0.95955,1.128888 2.54,1.128888 z"
         id="path2856" />
      <path
         d="m 132.0783,31.092014 q -2.34244,0 -4.34622,-0.592667 -2.00377,-0.620888 -3.38666,-1.665109 l 1.10067,-2.850443 q 1.38288,0.987777 3.01977,1.523999 1.66511,0.536222 3.61244,0.536222 2.22956,0 3.24556,-0.733777 1.016,-0.762 1.016,-1.947332 0,-0.987777 -0.73378,-1.552221 -0.70556,-0.564444 -2.45533,-0.931333 l -3.10445,-0.64911 q -5.30577,-1.128888 -5.30577,-5.446885 0,-1.862665 0.98778,-3.245553 0.98778,-1.382888 2.73755,-2.144887 1.74978,-0.762 4.03578,-0.762 2.03199,0 3.80999,0.620889 1.778,0.592666 2.96333,1.693332 l -1.10066,2.709331 q -2.34244,-1.975554 -5.70089,-1.975554 -1.94733,0 -3.04799,0.818444 -1.10067,0.818444 -1.10067,2.144887 0,1.015999 0.67733,1.636888 0.67734,0.592666 2.31422,0.931332 l 3.07622,0.649111 q 2.794,0.592666 4.14867,1.862665 1.38289,1.269999 1.38289,3.386664 0,1.777999 -0.95956,3.132664 -0.95955,1.354666 -2.73755,2.116665 -1.74978,0.733778 -4.14867,0.733778 z"
         id="path2858" />
      <path
         d="m 148.97943,31.092014 q -2.14489,0 -3.72533,-0.874889 -1.58044,-0.874888 -2.45533,-2.483553 -0.87489,-1.636888 -0.87489,-3.83822 0,-2.201331 0.87489,-3.809997 0.87489,-1.608665 2.45533,-2.483553 1.58044,-0.874888 3.72533,-0.874888 2.14489,0 3.72533,0.874888 1.58044,0.874888 2.45533,2.483553 0.87489,1.608666 0.87489,3.809997 0,2.201332 -0.87489,3.83822 -0.87489,1.608665 -2.45533,2.483553 -1.58044,0.874889 -3.72533,0.874889 z m 0,-2.681109 q 1.58044,0 2.54,-1.128888 0.95955,-1.157111 0.95955,-3.386665 0,-2.257776 -0.95955,-3.358441 -0.95956,-1.128888 -2.54,-1.128888 -1.58044,0 -2.54,1.128888 -0.95955,1.100665 -0.95955,3.358441 0,2.229554 0.95955,3.386665 0.95956,1.128888 2.54,1.128888 z"
         id="path2860" />
      <path
         d="m 159.71269,30.809792 v -11.14777 h -2.65289 v -2.652886 h 2.65289 v -0.02822 q 0,-2.935108 1.524,-4.430885 1.55222,-1.495777 4.79777,-1.693332 l 1.38289,-0.08467 0.22577,2.596443 -1.29822,0.08467 q -1.69333,0.112889 -2.39888,0.846666 -0.70556,0.705555 -0.70556,2.116665 v 0.592667 h 3.75355 v 2.652886 h -3.75355 v 11.14777 z"
         id="path2862" />
      <path
         d="m 174.58402,31.092014 q -5.4751,0 -5.4751,-5.418663 v -6.011329 h -2.65289 v -2.652886 h 2.65289 v -4.120442 h 3.52777 v 4.120442 h 4.17689 v 2.652886 h -4.17689 v 5.813774 q 0,1.354665 0.59267,2.031998 0.59266,0.677333 1.91911,0.677333 0.39511,0 0.81844,-0.08467 0.42333,-0.112888 0.87489,-0.225777 l 0.53622,2.596442 q -0.508,0.282222 -1.29822,0.451555 -0.762,0.169334 -1.49578,0.169334 z"
         id="path2864" />
    </g>
  </g>
</svg>
