<svg width="292" height="80" xmlns="http://www.w3.org/2000/svg"><defs><clipPath clipPathUnits="userSpaceOnUse" id="a"><path d="M0 60h219V0H0z"/></clipPath></defs><g clip-path="url(#a)" fill="#fff" transform="matrix(1.33333 0 0 -1.33333 0 80)"><path d="M43.125 35.456L28.917 59.5 14.708 35.456.5 11.41h28.417M61.659 24.276l-2.434 7.623c-.597 1.883-1.102 3.996-1.561 5.787h-.092c-.459-1.791-.918-3.95-1.469-5.787l-2.388-7.623zm-8.863-4.271l-2.663-8.771h-5.832l9.919 30.952h7.21l10.056-30.952h-6.062l-2.8 8.771zM75.917 26.389c0 3.03-.045 5.189-.184 7.209h4.914l.183-4.271h.184c1.102 3.169 3.72 4.777 6.108 4.777.551 0 .873-.046 1.332-.138v-5.327a7.918 7.918 0 01-1.653.183c-2.71 0-4.547-1.744-5.052-4.269-.092-.506-.184-1.103-.184-1.746V11.234h-5.648zM105.284 22.164c-3.996.092-7.807-.781-7.807-4.18 0-2.203 1.422-3.213 3.214-3.213 2.251 0 3.903 1.469 4.409 3.076.138.414.184.873.184 1.24zm5.509-5.557c0-2.021.094-3.995.322-5.373h-5.097l-.368 2.48h-.137c-1.378-1.744-3.72-2.985-6.614-2.985-4.499 0-7.025 3.26-7.025 6.659 0 5.648 5.006 8.496 13.272 8.45v.367c0 1.47-.597 3.902-4.547 3.902-2.204 0-4.5-.688-6.016-1.653l-1.102 3.675c1.654 1.01 4.547 1.975 8.082 1.975 7.165 0 9.23-4.547 9.23-9.415zM121.883 23.771h.093c.55.873 1.194 1.837 1.791 2.618l5.419 7.209h6.796l-8.267-9.138 9.461-13.226h-6.935l-6.429 9.873-1.929-2.25v-7.623h-5.649v32.605h5.649zM153.018 22.164c-3.997.092-7.807-.781-7.807-4.18 0-2.203 1.424-3.213 3.214-3.213 2.25 0 3.904 1.469 4.41 3.076.136.414.183.873.183 1.24zm5.509-5.557c0-2.021.093-3.995.323-5.373h-5.098l-.367 2.48h-.138c-1.377-1.744-3.72-2.985-6.612-2.985-4.501 0-7.027 3.26-7.027 6.659 0 5.648 5.006 8.496 13.271 8.45v.367c0 1.47-.597 3.902-4.545 3.902-2.205 0-4.501-.688-6.016-1.653l-1.102 3.675c1.652 1.01 4.546 1.975 8.082 1.975 7.165 0 9.229-4.547 9.229-9.415zM168.562 33.598l2.342-10.148c.503-2.388 1.009-4.822 1.423-7.256h.092c.458 2.434 1.193 4.913 1.837 7.209l2.892 10.195h4.593l2.802-9.918c.687-2.618 1.285-5.052 1.79-7.486h.092c.367 2.434.873 4.868 1.47 7.486l2.478 9.918h5.557l-7.027-22.364h-5.233l-2.664 9.092c-.688 2.342-1.193 4.456-1.699 7.164h-.091c-.459-2.755-1.056-4.959-1.699-7.164l-2.849-9.092h-5.28l-6.613 22.364zM212.668 22.164c-3.996.092-7.807-.781-7.807-4.18 0-2.203 1.424-3.213 3.214-3.213 2.252 0 3.904 1.469 4.409 3.076.139.414.184.873.184 1.24zm5.512-5.557c0-2.021.091-3.995.32-5.373h-5.098l-.367 2.48h-.138c-1.376-1.744-3.719-2.985-6.612-2.985-4.501 0-7.026 3.26-7.026 6.659 0 5.648 5.006 8.496 13.27 8.45v.367c0 1.47-.596 3.902-4.545 3.902-2.205 0-4.501-.688-6.015-1.653l-1.103 3.675c1.653 1.01 4.546 1.975 8.082 1.975 7.164 0 9.232-4.547 9.232-9.415z"/></g></svg>