<svg xmlns="http://www.w3.org/2000/svg" xml:space="preserve" id="レイヤー_1" x="0" y="0" style="enable-background:new 0 0 300 300" version="1.1" viewBox="0 0 300 300"><style>.st0{fill:#303f9f}</style><path d="M300 260c0 22-18 40-40 40H40c-22 0-40-18-40-40V40C0 18 18 0 40 0h220c22 0 40 18 40 40v220z" class="st0"/><path d="M169.63 240.3c-.94 2.58-3.96 4.7-6.71 4.7h-95c-2.75 0-4.23-2.11-3.29-4.7l65.73-180.6c.94-2.58 3.96-4.7 6.71-4.7h95c2.75 0 4.23 2.11 3.29 4.7l-65.73 180.6z" style="fill:#fff"/><path d="M202.87 245.3c-.94 2.58-3.96 4.7-6.71 4.7h-70c-2.75 0-4.23-2.11-3.29-4.7l40.26-110.6c.94-2.58 3.96-4.7 6.71-4.7h70c2.75 0 4.23 2.11 3.29 4.7l-40.26 110.6z" class="st0"/></svg>