<?xml version="1.0" encoding="utf-8"?>
<!-- Generator: Adobe Illustrator 12.0.0, SVG Export Plug-In . SVG Version: 6.00 Build 51448)  -->
<!DOCTYPE svg PUBLIC "-//W3C//DTD SVG 1.1//EN" "http://www.w3.org/Graphics/SVG/1.1/DTD/svg11.dtd" [
	<!ENTITY ns_svg "http://www.w3.org/2000/svg">
	<!ENTITY ns_xlink "http://www.w3.org/1999/xlink">
]>
<svg  version="1.1" id="レイヤー_1" xmlns="&ns_svg;" xmlns:xlink="&ns_xlink;" width="1147.232" height="300"
	 viewBox="0 0 1147.232 300" overflow="visible" enable-background="new 0 0 1147.232 300" xml:space="preserve">
<g>
	<path fill="#FFFFFF" d="M300,260c0,22-18,40-40,40H40c-22,0-40-18-40-40V40C0,18,18,0,40,0h220c22,0,40,18,40,40V260z"/>
</g>
<g>
	<path fill="#FFFFFF" d="M352.25,127.4l42-105.9h21.301L457.1,127.4h-24.9L400.4,39.5h8.549l-32.25,87.9H352.25z M376.1,108.201V89
		h57.75v19.201H376.1z"/>
	<path fill="#FFFFFF" d="M467.448,127.4V54.5h22.951v72.9H467.448z M490.399,87.35l-9.602-7.5c1.9-8.5,5.102-15.1,9.602-19.799
		S501.149,53,509.149,53c3.5,0,6.574,0.525,9.225,1.576c2.648,1.051,4.975,2.676,6.975,4.875l-13.65,17.25
		c-1-1.1-2.25-1.949-3.75-2.551c-1.5-0.6-3.201-0.9-5.1-0.9c-3.801,0-6.824,1.176-9.074,3.525
		C491.524,79.127,490.399,82.65,490.399,87.35z"/>
	<path fill="#FFFFFF" d="M564.497,128.9c-6.701,0-12.676-1.648-17.926-4.949s-9.4-7.801-12.451-13.5s-4.574-12.199-4.574-19.5
		s1.523-13.801,4.574-19.5s7.201-10.199,12.451-13.5S557.795,53,564.497,53c4.898,0,9.324,0.951,13.273,2.852
		s7.176,4.525,9.676,7.875s3.898,7.174,4.199,11.475v31.5c-0.301,4.301-1.676,8.125-4.125,11.475
		c-2.449,3.352-5.674,5.977-9.674,7.875S569.395,128.9,564.497,128.9z M569.145,108.201c4.9,0,8.851-1.625,11.851-4.875
		s4.5-7.375,4.5-12.375c0-3.4-0.676-6.4-2.025-9c-1.352-2.6-3.252-4.625-5.701-6.074s-5.275-2.176-8.474-2.176
		c-3.199,0-6.025,0.727-8.475,2.176c-2.451,1.449-4.402,3.475-5.852,6.074s-2.174,5.6-2.174,9c0,3.301,0.699,6.25,2.1,8.85
		c1.4,2.602,3.352,4.65,5.852,6.15S566.045,108.201,569.145,108.201z M584.596,127.4v-19.65l3.449-17.699l-3.449-17.701V54.5h22.5
		v72.9H584.596z"/>
	<path fill="#FFFFFF" d="M623.293,127.4V18.5h22.951v108.9H623.293z M669.943,127.4l-25.5-37.801l25.35-35.1h25.65l-30.6,39.451
		l0.75-9.451l31.35,42.9H669.943z"/>
	<path fill="#FFFFFF" d="M735.643,128.9c-6.701,0-12.676-1.648-17.926-4.949s-9.4-7.801-12.451-13.5s-4.574-12.199-4.574-19.5
		s1.523-13.801,4.574-19.5s7.201-10.199,12.451-13.5S728.941,53,735.643,53c4.898,0,9.324,0.951,13.273,2.852
		s7.176,4.525,9.676,7.875s3.898,7.174,4.199,11.475v31.5c-0.301,4.301-1.676,8.125-4.125,11.475
		c-2.449,3.352-5.674,5.977-9.674,7.875S740.541,128.9,735.643,128.9z M740.291,108.201c4.9,0,8.852-1.625,11.852-4.875
		s4.5-7.375,4.5-12.375c0-3.4-0.676-6.4-2.025-9c-1.352-2.6-3.252-4.625-5.701-6.074s-5.275-2.176-8.475-2.176
		s-6.025,0.727-8.475,2.176c-2.451,1.449-4.402,3.475-5.852,6.074s-2.174,5.6-2.174,9c0,3.301,0.699,6.25,2.1,8.85
		c1.4,2.602,3.352,4.65,5.852,6.15S737.191,108.201,740.291,108.201z M755.742,127.4v-19.65l3.449-17.699l-3.449-17.701V54.5h22.5
		v72.9H755.742z"/>
	<path fill="#FFFFFF" d="M812.289,127.4L787.09,54.5h22.5l15.6,52.951l-6.6,0.148l17.25-53.1h18.6l17.4,53.1l-6.75-0.148
		L880.84,54.5h22.5l-25.199,72.9h-18.75L842.439,77h5.701l-17.25,50.4H812.289z"/>
	<path fill="#FFFFFF" d="M942.639,128.9c-6.701,0-12.676-1.648-17.926-4.949s-9.4-7.801-12.451-13.5s-4.574-12.199-4.574-19.5
		s1.523-13.801,4.574-19.5s7.201-10.199,12.451-13.5S935.938,53,942.639,53c4.898,0,9.324,0.951,13.273,2.852
		s7.176,4.525,9.676,7.875s3.898,7.174,4.199,11.475v31.5c-0.301,4.301-1.676,8.125-4.125,11.475
		c-2.449,3.352-5.674,5.977-9.674,7.875S947.537,128.9,942.639,128.9z M947.287,108.201c4.9,0,8.852-1.625,11.852-4.875
		s4.5-7.375,4.5-12.375c0-3.4-0.676-6.4-2.025-9c-1.352-2.6-3.252-4.625-5.701-6.074s-5.275-2.176-8.475-2.176
		s-6.025,0.727-8.475,2.176c-2.451,1.449-4.402,3.475-5.852,6.074s-2.174,5.6-2.174,9c0,3.301,0.699,6.25,2.1,8.85
		c1.4,2.602,3.352,4.65,5.852,6.15S944.188,108.201,947.287,108.201z M962.738,127.4v-19.65l3.449-17.699l-3.449-17.701V54.5h22.5
		v72.9H962.738z"/>
	<path fill="#FFFFFF" d="M360.199,267.4V161.5h23.551v105.9H360.199z M378.35,267.4v-20.699h52.35V267.4H378.35z"/>
	<path fill="#FFFFFF" d="M472.699,268.9c-6.701,0-12.676-1.648-17.926-4.949s-9.4-7.801-12.451-13.5s-4.574-12.199-4.574-19.5
		s1.523-13.801,4.574-19.5s7.201-10.199,12.451-13.5S465.998,193,472.699,193c4.898,0,9.324,0.951,13.273,2.852
		s7.176,4.525,9.676,7.875s3.898,7.174,4.199,11.475v31.5c-0.301,4.301-1.676,8.125-4.125,11.475
		c-2.449,3.352-5.674,5.977-9.674,7.875S477.598,268.9,472.699,268.9z M477.348,248.201c4.9,0,8.852-1.625,11.852-4.875
		s4.5-7.375,4.5-12.375c0-3.4-0.676-6.4-2.025-9c-1.352-2.6-3.252-4.625-5.701-6.074s-5.275-2.176-8.475-2.176
		s-6.025,0.727-8.475,2.176c-2.451,1.449-4.402,3.475-5.852,6.074s-2.174,5.6-2.174,9c0,3.301,0.699,6.25,2.1,8.85
		c1.4,2.602,3.352,4.65,5.852,6.15S474.248,248.201,477.348,248.201z M492.799,267.4v-19.65l3.449-17.699l-3.449-17.701V194.5h22.5
		v72.9H492.799z"/>
	<path fill="#FFFFFF" d="M531.496,267.4V158.5h22.951v53.85l-3.75,17.701l3.449,17.699v19.65H531.496z M573.496,268.9
		c-4.9,0-9.4-1.025-13.5-3.074c-4.102-2.051-7.451-4.801-10.051-8.25s-4.1-7.324-4.498-11.625v-30.75
		c0.398-4.301,1.898-8.125,4.498-11.475s5.949-5.975,10.051-7.875c4.1-1.9,8.6-2.852,13.5-2.852c6.898,0,13.023,1.65,18.375,4.951
		c5.35,3.301,9.549,7.801,12.6,13.5s4.576,12.199,4.576,19.5s-1.525,13.801-4.576,19.5s-7.25,10.199-12.6,13.5
		C586.52,267.252,580.395,268.9,573.496,268.9z M569.447,248.201c3.199,0,6.023-0.75,8.473-2.25s4.375-3.549,5.775-6.15
		c1.4-2.6,2.102-5.549,2.102-8.85c0-3.4-0.701-6.4-2.102-9s-3.326-4.625-5.775-6.074s-5.273-2.176-8.473-2.176
		c-3.201,0-6.051,0.727-8.551,2.176s-4.426,3.475-5.775,6.074c-1.352,2.6-2.025,5.6-2.025,9s0.699,6.4,2.1,9
		s3.326,4.625,5.775,6.074C563.42,247.477,566.246,248.201,569.447,248.201z"/>
	<path fill="#FFFFFF" d="M655.844,269.051c-7.5,0-14.275-1.674-20.324-5.025c-6.051-3.35-10.824-7.924-14.324-13.725
		s-5.25-12.301-5.25-19.5s1.75-13.65,5.25-19.35s8.25-10.225,14.25-13.576c6-3.35,12.799-5.025,20.398-5.025s14.4,1.65,20.4,4.951
		s10.75,7.824,14.25,13.574s5.25,12.227,5.25,19.426s-1.75,13.699-5.25,19.5s-8.25,10.375-14.25,13.725
		C670.244,267.377,663.443,269.051,655.844,269.051z M655.844,248.201c3.301,0,6.201-0.725,8.701-2.176
		c2.5-1.449,4.424-3.5,5.773-6.15c1.35-2.648,2.025-5.674,2.025-9.074c0-3.398-0.701-6.373-2.1-8.924
		c-1.4-2.551-3.326-4.551-5.775-6s-5.324-2.176-8.625-2.176c-3.199,0-6.049,0.727-8.549,2.176s-4.451,3.475-5.852,6.074
		s-2.1,5.6-2.1,9c0,3.301,0.699,6.275,2.1,8.924c1.4,2.65,3.352,4.701,5.852,6.15C649.795,247.477,652.645,248.201,655.844,248.201z
		"/>
	<path fill="#FFFFFF" d="M707.143,267.4v-72.9h22.951v72.9H707.143z M730.094,227.35l-9.602-7.5c1.9-8.5,5.102-15.1,9.602-19.799
		s10.75-7.051,18.75-7.051c3.5,0,6.574,0.525,9.225,1.576c2.648,1.051,4.975,2.676,6.975,4.875l-13.65,17.25
		c-1-1.1-2.25-1.949-3.75-2.551c-1.5-0.6-3.201-0.9-5.1-0.9c-3.801,0-6.824,1.176-9.074,3.525
		C731.219,219.127,730.094,222.65,730.094,227.35z"/>
	<path fill="#FFFFFF" d="M804.191,268.9c-6.701,0-12.676-1.648-17.926-4.949s-9.4-7.801-12.451-13.5s-4.574-12.199-4.574-19.5
		s1.523-13.801,4.574-19.5s7.201-10.199,12.451-13.5S797.49,193,804.191,193c4.898,0,9.324,0.951,13.273,2.852
		s7.176,4.525,9.676,7.875s3.898,7.174,4.199,11.475v31.5c-0.301,4.301-1.676,8.125-4.125,11.475
		c-2.449,3.352-5.674,5.977-9.674,7.875S809.09,268.9,804.191,268.9z M808.84,248.201c4.9,0,8.852-1.625,11.852-4.875
		s4.5-7.375,4.5-12.375c0-3.4-0.676-6.4-2.025-9c-1.352-2.6-3.252-4.625-5.701-6.074s-5.275-2.176-8.475-2.176
		s-6.025,0.727-8.475,2.176c-2.451,1.449-4.402,3.475-5.852,6.074s-2.174,5.6-2.174,9c0,3.301,0.699,6.25,2.1,8.85
		c1.4,2.602,3.352,4.65,5.852,6.15S805.74,248.201,808.84,248.201z M824.291,267.4v-19.65l3.449-17.699l-3.449-17.701V194.5h22.5
		v72.9H824.291z"/>
	<path fill="#FFFFFF" d="M856.838,214v-19.5h55.951V214H856.838z M873.338,267.4V164.35h22.951V267.4H873.338z"/>
	<path fill="#FFFFFF" d="M957.936,269.051c-7.5,0-14.275-1.674-20.324-5.025c-6.051-3.35-10.824-7.924-14.324-13.725
		s-5.25-12.301-5.25-19.5s1.75-13.65,5.25-19.35s8.25-10.225,14.25-13.576c6-3.35,12.799-5.025,20.398-5.025s14.4,1.65,20.4,4.951
		s10.75,7.824,14.25,13.574s5.25,12.227,5.25,19.426s-1.75,13.699-5.25,19.5s-8.25,10.375-14.25,13.725
		C972.336,267.377,965.535,269.051,957.936,269.051z M957.936,248.201c3.301,0,6.201-0.725,8.701-2.176
		c2.5-1.449,4.424-3.5,5.773-6.15c1.35-2.648,2.025-5.674,2.025-9.074c0-3.398-0.701-6.373-2.1-8.924
		c-1.4-2.551-3.326-4.551-5.775-6s-5.324-2.176-8.625-2.176c-3.199,0-6.049,0.727-8.549,2.176s-4.451,3.475-5.852,6.074
		s-2.1,5.6-2.1,9c0,3.301,0.699,6.275,2.1,8.924c1.4,2.65,3.352,4.701,5.852,6.15C951.887,247.477,954.736,248.201,957.936,248.201z
		"/>
	<path fill="#FFFFFF" d="M1009.234,267.4v-72.9h22.951v72.9H1009.234z M1032.186,227.35l-9.602-7.5c1.9-8.5,5.102-15.1,9.602-19.799
		s10.75-7.051,18.75-7.051c3.5,0,6.574,0.525,9.225,1.576c2.648,1.051,4.975,2.676,6.975,4.875l-13.65,17.25
		c-1-1.1-2.25-1.949-3.75-2.551c-1.5-0.6-3.201-0.9-5.1-0.9c-3.801,0-6.824,1.176-9.074,3.525
		C1033.311,219.127,1032.186,222.65,1032.186,227.35z"/>
	<path fill="#FFFFFF" d="M1098.332,267.701l-30-73.201h24.75l19.051,58.051h-9.15l19.5-58.051h24.75l-31.199,73.201H1098.332z
		 M1079.582,298.15l21.9-47.25l14.551,16.801l-12.9,30.449H1079.582z"/>
</g>
<g>
	<path fill="#303F9F" d="M169.633,240.302c-0.94,2.584-3.96,4.698-6.71,4.698h-95c-2.75,0-4.23-2.114-3.29-4.698l65.734-180.604
		c0.94-2.584,3.96-4.698,6.71-4.698h95c2.75,0,4.23,2.114,3.29,4.698L169.633,240.302z"/>
</g>
<g>
	<path fill="#FFFFFF" d="M202.872,245.302c-0.94,2.584-3.96,4.698-6.71,4.698h-70c-2.75,0-4.23-2.114-3.29-4.698l40.257-110.604
		c0.94-2.584,3.96-4.698,6.71-4.698h70c2.75,0,4.23,2.114,3.29,4.698L202.872,245.302z"/>
</g>
</svg>
