<svg xmlns="http://www.w3.org/2000/svg" width="227.404" height="256" overflow="visible" xml:space="preserve"><path fill="#41C9B4" d="M86.997 86.736V67.157c0-3.568.186-4.758.734-6.588 1.468-5.032 6.425-8.782 12.297-8.782 5.873 0 10.828 3.841 12.296 8.782.552 1.831.736 3.021.736 6.588v30.192c0 1.831 0 3.659-.368 5.308-1.008 4.574-5.139 8.692-9.728 9.698-1.651.365-3.486.365-5.323.365H67.359c-3.579 0-4.772-.183-6.608-.731-4.955-1.465-8.808-6.404-8.808-12.26s3.853-10.797 8.808-12.26c1.836-.549 3.029-.732 6.608-.732h19.638zm107.921 136.875H32.487V80.973c0-1.831.642-3.386 1.927-4.667L76.535 34.31c1.285-1.28 2.845-1.92 4.681-1.92h113.702v191.221zM213.364.182C212.538.091 211.437 0 209.326 0H76.901c-1.466 0-2.935.091-3.945.182-6.057.55-11.472 3.386-15.784 7.686L7.892 57C3.581 61.301.734 66.698.185 72.737A44.895 44.895 0 0 0 0 76.671v161.305c0 2.104.092 3.202.185 4.027.732 6.861 6.973 13.081 13.855 13.813.827.093 1.928.184 4.038.184h191.248c2.11 0 3.212-.091 4.038-.184 6.883-.732 13.122-6.952 13.856-13.813.091-.825.184-1.923.184-4.027V18.024c0-2.104-.093-3.203-.184-4.026-.734-6.862-6.973-13.084-13.856-13.816z"/></svg>