<svg width="512" height="193.63" xmlns="http://www.w3.org/2000/svg"><path d="M0 0h512v193.63H0" fill="#55c500"/><path d="M212.99 44.796c-6.314 0-11.431 5.118-11.431 11.431 0 6.314 5.117 11.432 11.431 11.432 6.314 0 11.431-5.118 11.431-11.432 0-6.313-5.118-11.431-11.431-11.431m109.36-5.43h-18.781v24.548h-12.64v17.595h12.64v35.436c0 6.926.88 12.594 2.64 17.008 1.76 4.411 4.146 7.887 7.163 10.429 3.016 2.543 6.56 4.287 10.64 5.235 4.075.951 6.854 1.426 11.489 1.426h14.116v-16.756h-12.19c-2.065 0-4.007-.265-5.82-.796a11.754 11.754 0 0 1-4.818-2.765c-1.395-1.31-2.5-3.098-3.31-5.362-.808-2.26-1.214-5.122-1.214-8.586V81.51h27.564V63.916h-27.48zm-168.96 70.27c-2.05 4.88-4.852 9.115-8.412 12.699-3.56 3.587-7.74 6.405-12.54 8.455-4.8 2.049-9.948 3.073-15.45 3.073-5.448 0-10.555-1.024-15.328-3.073-4.773-2.05-8.939-4.868-12.498-8.455-3.56-3.584-6.379-7.82-8.455-12.7-2.076-4.88-3.113-10.152-3.113-15.813 0-5.664 1.037-10.948 3.113-15.857 2.076-4.907 4.894-9.154 8.454-12.741 3.56-3.584 7.725-6.403 12.498-8.452 4.774-2.049 9.881-3.073 15.328-3.073 5.503 0 10.65 1.024 15.45 3.073 4.8 2.05 8.98 4.867 12.54 8.452 3.561 3.587 6.363 7.835 8.413 12.74 2.049 4.91 3.074 10.195 3.074 15.858 0 5.66-1.025 10.932-3.074 15.814m23.217-15.896c0-8.036-1.566-15.544-4.694-22.53-3.128-6.984-7.388-13.064-12.78-18.242-5.394-5.177-11.718-9.248-18.969-12.214-7.255-2.965-14.98-4.448-23.177-4.448-8.25 0-15.99 1.483-23.214 4.448-7.228 2.967-13.525 7.038-18.89 12.215-5.366 5.177-9.613 11.258-12.739 18.242-3.128 6.985-4.693 14.494-4.693 22.53 0 7.98 1.565 15.465 4.693 22.448 3.126 6.983 7.373 13.079 12.74 18.28 5.365 5.208 11.661 9.304 18.89 12.298 7.223 2.991 14.962 4.49 23.213 4.49 5.716 0 11.176-.717 16.381-2.144a60.346 60.346 0 0 0 14.683-6.188l11.46 11.562a9.588 9.588 0 1 0 13.591-13.53l-10.328-10.33c4.314-5.014 7.698-10.65 10.151-16.907 2.453-6.253 3.682-12.914 3.682-19.979m257.91 25.69c-1.348 3.183-3.171 5.927-5.474 8.23-2.305 2.304-5.011 4.09-8.115 5.357-3.106 1.269-6.42 1.903-9.94 1.903-3.572 0-6.91-.634-10.016-1.903-3.107-1.266-5.824-3.053-8.152-5.357-2.33-2.303-4.168-5.059-5.513-8.27-1.348-3.208-2.02-6.728-2.02-10.559 0-3.831.66-7.325 1.979-10.486 1.322-3.155 3.131-5.886 5.436-8.19 2.303-2.303 5.008-4.09 8.113-5.358 3.108-1.268 6.447-1.903 10.018-1.903 3.573 0 6.912.648 10.016 1.943 3.108 1.293 5.825 3.079 8.153 5.358 2.332 2.277 4.168 5.007 5.516 8.192 1.345 3.184 2.017 6.664 2.017 10.444 0 3.88-.672 7.415-2.017 10.599M438.4 68.92l-1.089 8.775c-1.553-1.503-3.326-2.939-5.317-4.31-1.993-1.372-4.182-2.563-6.564-3.572a43.534 43.534 0 0 0-7.607-2.408c-2.694-.595-5.565-.893-8.62-.893-6.42 0-12.257 1.115-17.51 3.339-5.255 2.226-9.758 5.255-13.51 9.084-3.754 3.832-6.654 8.323-8.697 13.473-2.046 5.15-3.067 10.651-3.067 16.5 0 5.85 1.033 11.351 3.104 16.502 2.07 5.15 4.97 9.642 8.697 13.471 3.73 3.832 8.217 6.846 13.473 9.047 5.253 2.2 11.066 3.3 17.433 3.3 3.001 0 5.863-.297 8.58-.893 2.717-.595 5.253-1.398 7.608-2.407a40.6 40.6 0 0 0 6.563-3.534 38.42 38.42 0 0 0 5.434-4.348l1.089 8.774h16.15V68.917zm-234.62 79.99h18.416V80.45H203.78zm45.85 0h18.417V80.45H249.63zm9.204-104.11c-6.313 0-11.431 5.118-11.431 11.43 0 6.314 5.118 11.433 11.43 11.433s11.433-5.119 11.433-11.432c0-6.313-5.118-11.431-11.432-11.431" fill="#fff"/></svg>