<?xml version="1.0" encoding="UTF-8" standalone="no"?>
<svg width="112px" height="40px" viewBox="0 0 112 40" version="1.1" xmlns="http://www.w3.org/2000/svg" xmlns:xlink="http://www.w3.org/1999/xlink">
    <!-- Generator: Sketch 3.6.1 (26313) - http://www.bohemiancoding.com/sketch -->
    <title>booth_logo</title>
    <desc>Created with Sketch.</desc>
    <defs/>
    <g id="Market-Views" stroke="none" stroke-width="1" fill="none" fill-rule="evenodd">
        <g id="booth_logo">
            <path d="M0,40 L112,40 L112,0 L0,0 L0,40 Z" id="Fill-1" fill="#FC4D50"/>
            <path d="M19.4824,13.9795 L19.0014,18.5675 L21.3544,18.5675 C22.2274,18.5675 22.8774,18.4005 23.3044,18.0645 C23.7324,17.7295 23.9914,17.1245 24.0874,16.2505 C24.1814,15.4075 24.0334,14.8175 23.6394,14.4825 C23.2494,14.1475 22.6534,13.9795 21.8584,13.9795 L19.4824,13.9795 Z M18.7194,21.1895 L18.2104,26.1065 L20.8664,26.1065 C21.2864,26.1065 21.6454,26.0945 21.9404,26.0715 C22.2364,26.0475 22.5484,25.9855 22.8804,25.8845 C23.2104,25.7825 23.4834,25.6425 23.6994,25.4625 C23.9164,25.2835 24.1014,25.0335 24.2564,24.7135 C24.4114,24.3935 24.5154,24.0155 24.5704,23.5775 C24.6094,23.1415 24.5704,22.7665 24.4524,22.4545 C24.3334,22.1425 24.1814,21.9035 23.9914,21.7405 C23.8044,21.5765 23.5364,21.4515 23.1884,21.3655 C22.8394,21.2795 22.5334,21.2295 22.2674,21.2125 C22.0004,21.1975 21.6494,21.1895 21.2124,21.1895 L18.7194,21.1895 Z M22.5294,11.2165 C24.2474,11.2165 25.5194,11.5955 26.3484,12.3525 C27.1764,13.1085 27.5024,14.3305 27.3274,16.0165 C27.2554,16.7025 27.0554,17.3615 26.7314,17.9945 C26.4054,18.6265 25.9704,19.1065 25.4264,19.4345 C26.0724,19.5595 26.6084,19.8555 27.0304,20.3235 C27.4544,20.7915 27.7364,21.3305 27.8774,21.9395 C28.0194,22.5475 28.0534,23.1885 27.9804,23.8585 C27.8024,25.5135 27.1514,26.7615 26.0274,27.6055 C24.9004,28.4475 23.4954,28.8685 21.8094,28.8685 L14.4694,28.8685 L16.3154,11.2165 L22.5294,11.2165 Z M77.8964,18.5125 L83.6194,18.5125 L84.3824,11.2165 L87.8234,11.2165 L85.9794,28.8685 L82.5384,28.8685 L83.3244,21.3215 L77.6004,21.3215 L76.8134,28.8685 L73.3724,28.8685 L75.2164,11.2165 L78.6574,11.2165 L77.8964,18.5125 Z M69.7654,14.2125 L68.2284,28.8685 L64.7874,28.8685 L66.3234,14.2125 L62.7654,14.2125 L63.0734,11.2165 L73.6314,11.2165 L73.3234,14.2125 L69.7654,14.2125 Z M58.9754,19.8825 C59.0654,18.9365 58.9674,18.0395 58.6844,17.1915 C58.3994,16.3445 57.9204,15.6465 57.2444,15.0965 C56.5704,14.5465 55.7654,14.2725 54.8314,14.2725 C53.8964,14.2725 53.0414,14.5465 52.2624,15.0965 C51.4844,15.6465 50.8784,16.3445 50.4474,17.1915 C50.0144,18.0395 49.7534,18.9365 49.6634,19.8825 C49.6364,20.4165 49.6364,20.9585 49.6664,21.5085 C49.6954,22.0585 49.8114,22.5925 50.0144,23.1115 C50.2174,23.6305 50.4704,24.0885 50.7734,24.4855 C51.0744,24.8825 51.4854,25.2035 52.0034,25.4465 C52.5224,25.6915 53.1124,25.8135 53.7724,25.8135 C54.5874,25.8135 55.3254,25.6335 55.9864,25.2745 C56.6494,24.9165 57.1814,24.4395 57.5844,23.8445 C57.9884,23.2485 58.3064,22.6155 58.5374,21.9435 C58.7674,21.2725 58.9134,20.5845 58.9754,19.8825 L58.9754,19.8825 Z M62.1634,20.0195 C62.0484,21.2875 61.7544,22.4785 61.2794,23.5925 C60.8064,24.7065 60.1964,25.6725 59.4534,26.4885 C58.7114,27.3055 57.8214,27.9505 56.7874,28.4245 C55.7514,28.8975 54.6444,29.1335 53.4644,29.1335 C51.8914,29.1335 50.5394,28.7245 49.4074,27.9085 C48.2744,27.0915 47.4594,25.9965 46.9564,24.6225 C46.4544,23.2485 46.2844,21.7145 46.4474,20.0195 C46.6084,18.3105 47.0754,16.7725 47.8444,15.4055 C48.6154,14.0395 49.6344,12.9555 50.9054,12.1535 C52.1754,11.3525 53.5874,10.9515 55.1394,10.9515 C56.6914,10.9515 58.0284,11.3525 59.1524,12.1535 C60.2764,12.9555 61.1004,14.0395 61.6234,15.4055 C62.1454,16.7725 62.3244,18.3105 62.1634,20.0195 L62.1634,20.0195 Z M41.8574,19.8825 C41.9474,18.9365 41.8494,18.0395 41.5664,17.1915 C41.2824,16.3445 40.8024,15.6465 40.1274,15.0965 C39.4524,14.5465 38.6474,14.2725 37.7124,14.2725 C36.7794,14.2725 35.9234,14.5465 35.1434,15.0965 C34.3674,15.6465 33.7614,16.3445 33.3294,17.1915 C32.8974,18.0395 32.6354,18.9365 32.5464,19.8825 C32.5184,20.4165 32.5184,20.9585 32.5484,21.5085 C32.5774,22.0585 32.6924,22.5925 32.8974,23.1115 C33.0994,23.6305 33.3524,24.0885 33.6554,24.4855 C33.9574,24.8825 34.3684,25.2035 34.8854,25.4465 C35.4044,25.6915 35.9934,25.8135 36.6544,25.8135 C37.4674,25.8135 38.2064,25.6335 38.8694,25.2745 C39.5314,24.9165 40.0634,24.4395 40.4674,23.8445 C40.8714,23.2485 41.1884,22.6155 41.4194,21.9435 C41.6504,21.2725 41.7964,20.5845 41.8574,19.8825 L41.8574,19.8825 Z M45.0464,20.0195 C44.9304,21.2875 44.6354,22.4785 44.1634,23.5925 C43.6884,24.7065 43.0794,25.6725 42.3364,26.4885 C41.5924,27.3055 40.7044,27.9505 39.6694,28.4245 C38.6324,28.8975 37.5264,29.1335 36.3464,29.1335 C34.7724,29.1335 33.4214,28.7245 32.2894,27.9085 C31.1574,27.0915 30.3394,25.9965 29.8374,24.6225 C29.3364,23.2485 29.1674,21.7145 29.3304,20.0195 C29.4914,18.3105 29.9574,16.7725 30.7264,15.4055 C31.4974,14.0395 32.5164,12.9555 33.7874,12.1535 C35.0574,11.3525 36.4684,10.9515 38.0204,10.9515 C39.5734,10.9515 40.9114,11.3525 42.0354,12.1535 C43.1594,12.9555 43.9824,14.0395 44.5054,15.4055 C45.0264,16.7725 45.2074,18.3105 45.0464,20.0195 Z M99.1323,22.4912 L99.1323,21.6942 L97.1413,18.5082 L96.4543,18.5082 L95.3673,21.1152 L94.2993,18.8702 L93.7013,18.8692 L91.8913,23.1422 L91.8913,19.0872 L90.6603,19.0872 L90.6603,19.4462 L89.7193,19.4462 L89.7193,20.6952 L90.6603,20.6952 L90.6603,24.3012 C90.6603,24.6212 90.9203,24.8802 91.2403,24.8802 L91.8553,24.8802 L91.8553,28.8552 L93.1113,28.8552 L93.1113,27.0552 C93.1113,26.0582 93.9743,25.2492 95.0413,25.2432 L95.0533,25.2432 L95.0543,25.2432 L95.0553,25.2432 C96.8013,25.2442 98.2153,26.5642 98.2153,28.1922 L98.2153,28.8552 L99.1323,28.8552 L99.1323,25.2892 L100.0733,25.2892 L100.0733,23.3182 L99.1323,22.4912 Z" id="Combined-Shape" fill="#FFFFFF"/>
        </g>
    </g>
</svg>